<svg xmlns="http://www.w3.org/2000/svg" width="1400" height="820" viewBox="0 0 1400 820" role="img" aria-labelledby="title desc">
  <title id="title">RV32I core synthesis and cycle characterization sheet</title>
  <desc id="desc">Engineering report sheet containing Yosys XC7 resource estimates, Verilator cycle measurements, state sequencing, tool versions, and result limitations.</desc>
  <style>
    .paper { fill:#f5f3ec } .ink { fill:#18222b } .muted { fill:#53616a }
    .rule { fill:none; stroke:#263944; stroke-width:1.4 }
    .fine { fill:none; stroke:#829099; stroke-width:0.8 }
    .dash { fill:none; stroke:#829099; stroke-width:1; stroke-dasharray:6 5 }
    .accent { fill:#075d78 } .warn { fill:#b64a2b } .bar { fill:#1c7893 }
    .title { fill:#18222b; font:700 28px Arial,sans-serif; letter-spacing:1px }
    .kicker { fill:#075d78; font:700 12px Arial,sans-serif; letter-spacing:2px }
    .section { fill:#f5f3ec; font:700 14px Arial,sans-serif; letter-spacing:1px }
    .label { fill:#53616a; font:12px Arial,sans-serif }
    .value { fill:#18222b; font:700 22px 'Courier New',monospace }
    .mono { fill:#18222b; font:13px 'Courier New',monospace }
    .small { fill:#53616a; font:11px Arial,sans-serif }
    .state { fill:#f5f3ec; stroke:#075d78; stroke-width:1.5 }
  </style>
  <defs><pattern id="grid" width="20" height="20" patternUnits="userSpaceOnUse"><path d="M20 0H0V20" fill="none" stroke="#9ba6aa" stroke-width="0.35" opacity="0.34"/></pattern><marker id="arrow" markerWidth="8" markerHeight="8" refX="7" refY="4" orient="auto"><path d="M0 0L8 4L0 8Z" class="accent"/></marker></defs>
  <rect width="1400" height="820" class="paper"/><rect x="28" y="28" width="1344" height="764" fill="url(#grid)" class="rule"/>
  <text x="60" y="62" class="kicker">IMPLEMENTATION NOTE / CORE-ONLY / PRE-P&amp;R</text>
  <text x="60" y="101" class="title">RV32I CORE — SYNTHESIS + CYCLE CHARACTERIZATION</text>
  <text x="60" y="128" class="mono">TOP: rv32i_core   ISA: RV32I   BUS: SPLIT READY/VALID   CONTROL: 4-STATE MULTICYCLE</text>
  <rect x="1040" y="46" width="300" height="88" class="rule"/><path d="M1040 76H1340M1155 46V134" class="fine"/>
  <text x="1052" y="66" class="small">REPORT</text><text x="1052" y="101" class="mono">OSS-CAD-001</text>
  <text x="1168" y="66" class="small">TOOL RELEASE</text><text x="1168" y="101" class="mono">2026-09-05</text><text x="1168" y="120" class="small">Yosys 0.68+195</text>

  <rect x="52" y="160" width="1296" height="35" class="accent"/><text x="66" y="183" class="section">A. MEASUREMENT CONDITIONS AND EXECUTION PATH</text>
  <text x="66" y="225" class="mono">WORKLOAD</text><text x="180" y="225" class="mono">rv32i_directed.hex / pass signature 0x600D600D</text>
  <text x="66" y="250" class="mono">CLOCK MODEL</text><text x="180" y="250" class="mono">10 ns simulation period; frequency conversion is illustrative only</text>
  <text x="66" y="275" class="mono">SAMPLE</text><text x="180" y="275" class="mono">134 retired instructions / 15 data transactions</text>
  <rect x="800" y="215" width="126" height="54" class="state"/><text x="863" y="239" text-anchor="middle" class="mono">FETCH</text><text x="863" y="257" text-anchor="middle" class="small">imem handshake</text>
  <rect x="975" y="215" width="126" height="54" class="state"/><text x="1038" y="239" text-anchor="middle" class="mono">EXECUTE</text><text x="1038" y="257" text-anchor="middle" class="small">decode / ALU</text>
  <rect x="1150" y="215" width="126" height="54" class="state"/><text x="1213" y="239" text-anchor="middle" class="mono">MEMORY</text><text x="1213" y="257" text-anchor="middle" class="small">load / store only</text>
  <path d="M926 242H968M1101 242H1143" stroke="#075d78" stroke-width="1.6" marker-end="url(#arrow)"/><path d="M1038 274V295H863V276" class="dash" marker-end="url(#arrow)"/><path d="M1213 274V310H863V276" class="dash" marker-end="url(#arrow)"/>

  <rect x="52" y="330" width="630" height="35" class="accent"/><text x="66" y="353" class="section">B. XILINX 7-SERIES TECHNOLOGY ESTIMATE</text>
  <text x="68" y="400" class="label">EST. LOGIC CELLS</text><text x="250" y="400" class="value">2,132</text>
  <text x="390" y="400" class="label">FLIP-FLOPS</text><text x="520" y="400" class="value">1,270</text>
  <text x="78" y="460" class="mono">LUT1</text><rect x="140" y="444" width="5.5" height="19" class="bar"/><text x="158.5" y="460" class="mono">10</text><text x="78" y="499" class="mono">LUT2</text><rect x="140" y="483" width="157.6" height="19" class="bar"/><text x="310.6" y="499" class="mono">287</text><text x="78" y="538" class="mono">LUT3</text><rect x="140" y="522" width="168.0" height="19" class="bar"/><text x="321.0" y="538" class="mono">306</text><text x="78" y="577" class="mono">LUT4</text><rect x="140" y="561" width="237.8" height="19" class="bar"/><text x="390.8" y="577" class="mono">433</text><text x="78" y="616" class="mono">LUT5</text><rect x="140" y="600" width="430.0" height="19" class="bar"/><text x="583.0" y="616" class="mono">783</text><text x="78" y="655" class="mono">LUT6</text><rect x="140" y="639" width="335.0" height="19" class="bar"/><text x="488.0" y="655" class="mono">610</text>
  <text x="78" y="695" class="mono">CARRY4    52    MUXF7    47    MUXF8    12</text>

  <rect x="710" y="330" width="638" height="35" class="accent"/><text x="724" y="353" class="section">C. MEASURED CYCLE RESULTS</text>
  <path d="M710 414H1348M710 463H1348M710 512H1348M710 561H1348" class="fine"/>
  <path d="M960 380V561M1062 380V561M1166 380V561M1268 380V561" class="fine"/>
  <text x="724" y="401" class="small">MEMORY RESPONSE</text><text x="974" y="401" class="small">CYCLES</text><text x="1076" y="401" class="small">RETIRED</text><text x="1180" y="401" class="small">CPI</text><text x="1282" y="401" class="small">IPC</text>
  <text x="724" y="446" class="mono">zero inserted wait</text><text x="974" y="446" class="mono">282</text><text x="1076" y="446" class="mono">134</text><text x="1180" y="446" class="mono">2.104</text><text x="1282" y="446" class="mono">0.475</text>
  <text x="724" y="495" class="mono">seeded 0–3 cycles</text><text x="974" y="495" class="mono">501</text><text x="1076" y="495" class="mono">134</text><text x="1180" y="495" class="mono">3.739</text><text x="1282" y="495" class="mono">0.267</text>
  <text x="724" y="544" class="mono">wait contribution</text><text x="974" y="544" class="mono">I:200</text><text x="1076" y="544" class="mono">D:20</text><text x="1180" y="544" class="small">seed 0x321C</text>
  <text x="724" y="600" class="label">DERIVED RATE @ 100 MHz (NO TIMING CLAIM)</text><text x="724" y="633" class="value">47.5 MIPS</text><text x="930" y="633" class="mono">zero-wait</text><text x="1070" y="633" class="value">26.7 MIPS</text><text x="1260" y="633" class="mono">waited</text>
  <text x="724" y="682" class="label">GENERIC NETLIST</text><text x="850" y="682" class="mono">8307 cells / 1269 seq / 1149 mux</text>
  <rect x="710" y="706" width="638" height="42" fill="#ece5d9" stroke="#b64a2b" stroke-width="1.4"/><text x="724" y="724" class="small">LIMIT: RESOURCE MAPPING ONLY. NO XC7A100T PLACEMENT, ROUTING, SLACK, POWER, BRAM,</text><text x="724" y="740" class="small">OR FMAX RESULT IS CLAIMED. VIVADO IMPLEMENTATION REMAINS THE BOARD-LEVEL AUTHORITY.</text>

  <rect x="52" y="760" width="1296" height="32" class="rule"/><path d="M980 760V792M1160 760V792" class="fine"/>
  <text x="64" y="781" class="small">SOURCE: reports/oss-cad/summary.json + cocotb measured counters</text><text x="992" y="781" class="small">SCOPE: rv32i_core</text><text x="1172" y="781" class="small">STATUS: REPRODUCIBLE</text>
</svg>